# xmcd
#
# Track frame offsets:
#	150
#	11525
#	23675
#	34262
#	46550
#	60917
#	75820
#	87275
#	99895
#	114070
#	126472
#	138980
#	150445
#	163875
#	176000
#	188905
#	200150
#	209400
#	221795
#	232250
#
# Disc length: 3276 seconds
#
# Revision: 0
# Processed by: cddbd v1.4PL0 Copyright (c) Steve Scherf et al.
# Submitted via: dBpowerAMP V4.0
#
DISCID=030cca14
DTITLE=lightnin Slim - lightnin slim's bell ringer
DYEAR=1900
DGENRE=
TTITLE0=01 love me mama
TTITLE1=02 she's my crazy little baby
TTITLE2=03 have mercy on me baby
TTITLE3=04 wintertime blues
TTITLE4=05 if you ever need me
TTITLE5=06 mean ole lonesome train
TTITLE6=07 baby please come back
TTITLE7=08 love is just a gamble
TTITLE8=09 somebody knockin
TTITLE9=10 you give me the blues
TTITLE10=11 dont start me talkin
TTITLE11=12 you move me baby
TTITLE12=13 bad luck and trouble
TTITLE13=14 have your way
TTITLE14=15 i'm grown
TTITLE15=16 i'm a rollin' stone
TTITLE16=17 too close blues
TTITLE17=18 my little angel child
TTITLE18=cool down baby
TTITLE19=nothin but the devil
EXTD=lightnin' slim's bell ringer
EXTT0=
EXTT1=
EXTT2=
EXTT3=
EXTT4=
EXTT5=
EXTT6=
EXTT7=
EXTT8=
EXTT9=
EXTT10=
EXTT11=
EXTT12=
EXTT13=
EXTT14=
EXTT15=
EXTT16=
EXTT17=
EXTT18=
EXTT19=
PLAYORDER=
